# xmcd
#
# Track frame offsets:
#	150
#	12137
#	26505
#	39557
#	56552
#	69327
#	92802
#	103404
#	121805
#	135415
#	153812
#	167570
#	182782
#	196165
#	211500
#
# Disc length: 3081 seconds
#
# Revision: 2
# Processed by: cddbd v1.5.2PL0 Copyright (c) Steve Scherf et al.
# Submitted via: EasyCDDAExtractor 9.0.0.1
#
DISCID=b90c070f
DTITLE=Various Artist - Piano Pops
DYEAR=1900
DGENRE=Easy Listening
TTITLE0=Richard Clayderman - Ballade Pour Adeline
TTITLE1=Richard Clayderman - 'A' Comme Amour
TTITLE2=Richard Clayderman - Triste Coeur
TTITLE3=Richard Clayderman - Concerto Pour Une Jeune Fille Nommee 'Je T'aime'
TTITLE4=Richard Clayderman - Starlight Serenade
TTITLE5=Richard Clayderman - Lyphard Melodie
TTITLE6=Claude Bolling - Borsalino
TTITLE7=Various Artist - Smile Again(From Yesterday)
TTITLE8=Various Artist - The Entertainer(From The Sting)
TTITLE9=Various Artist - It Might Be You(From Tootsie)
TTITLE10=Various Artist - Stand By Me
TTITLE11=Frank Mills - Music Box Dancer
TTITLE12=Various Artist - For Your Eyes Only(From James Band)
TTITLE13=Various Artist - I Don't Know How To Love Him
TTITLE14=Various Artist - Send In The Clowns(From Jesus Christ Superstar)
EXTD=
EXTT0=
EXTT1=
EXTT2=
EXTT3=
EXTT4=
EXTT5=
EXTT6=
EXTT7=
EXTT8=
EXTT9=
EXTT10=
EXTT11=
EXTT12=
EXTT13=
EXTT14=
PLAYORDER=
